# xmcd
#
# Track frame offsets: 
#        150
#        17122
#        38654
#        58623
#        74725
#        91667
#        113817
#        128659
#        146858
#        166358
#        183302
#        205359
#        222353
#        240645
#        260007
#        277094
#        298423
#
# Disc length: 4290 seconds
#
# Revision: 0
# Processed by: cddbd v1.5.1PL2 Copyright (c) Steve Scherf et al.
# Submitted via: ExactAudioCopy v0.95a5
#
DISCID=1110c011
DTITLE=周华健 - 忘忧草
DYEAR=2001
DGENRE=Pop
TTITLE0=忘忧草
TTITLE1=有没有一首歌会让你想起我
TTITLE2=你说得对
TTITLE3=怎么了
TTITLE4=现在才说我爱你
TTITLE5=深呼吸
TTITLE6=一点空间
TTITLE7=1234567
TTITLE8=我怕会头昏
TTITLE9=青红皂白
TTITLE10=你们
TTITLE11=送你回家
TTITLE12=上上签
TTITLE13=你在我心里面
TTITLE14=鬼迷心窍
TTITLE15=让我欢喜让我忧
TTITLE16=朋友
EXTD=
EXTT0=
EXTT1=
EXTT2=
EXTT3=
EXTT4=
EXTT5=
EXTT6=
EXTT7=
EXTT8=
EXTT9=
EXTT10=
EXTT11=
EXTT12=
EXTT13=
EXTT14=
EXTT15=
EXTT16=
PLAYORDER=
